<svg width="100%" height="100%" viewBox="0 0 648 445" fill="none" xmlns="http://www.w3.org/2000/svg">
<path d="M630.572 181.664L630.196 136.733C573.461 124.531 521.646 89.6377 469 64.0132L469.577 314.327C534.739 284.379 570.341 266.843 630.486 256.094L630.604 211.093" stroke="white" stroke-width="32.9245"/>
<path d="M16.3815 149.508L0.680971 154.354L0.632673 119.503L2.39259 119.035L16.3815 149.508ZM16.3815 149.508L0.680971 154.354L0.632673 119.503L2.39259 119.035L16.3815 149.508ZM201.727 25.1113L177.447 39.2362C145.524 57.8061 117.602 73.9782 89.3376 86.2636C59.9889 99.0204 31.5496 111.056 2.07528 119.043L10.3793 151.28C42.6314 142.54 72.5151 129.789 102.023 116.963C124.582 107.157 146.579 95.0106 169.203 82.0739L169.143 298.545C124.126 277.49 81.4572 257.986 33.1923 244.141L33.1217 211.133L0.611328 211.206L0.734794 269.789L12.9544 272.977C70.9954 288.115 120.377 312.51 178.678 339.621L201.639 350.301L201.727 25.1113Z" fill="white"/>
<path d="M209.16 20.5199L241.825 0.981689L241.636 22.3738L210.039 22.9572L209.16 20.5199ZM209.16 20.5199L241.825 0.981689L241.636 22.3738L210.039 22.9572L209.16 20.5199ZM209.167 20.6791V354.563L216.638 359.484C250.616 381.861 280.377 406.072 311.009 434.341L322.015 444.501L332.901 434.207C365.587 403.299 402.244 370.089 437.71 348.916L445.753 344.114L445.947 290.517L413.436 290.394L413.309 325.471C380.73 346.243 349.734 373.385 321.666 399.637C296.063 376.682 270.139 355.911 241.677 336.603V20.6791H209.167Z" fill="white"/>
</svg>
