<svg
   width="210mm"
   height="297mm"
   viewBox="0 0 210 297"
   version="1.1"
   id="svg5"
   xmlns="http://www.w3.org/2000/svg"
   xmlns:svg="http://www.w3.org/2000/svg">
  <g
     id="layer1">
    <path
       style="fill:none;fill-opacity:1;stroke:#000000;stroke-width:8.71127;stroke-dasharray:none;stroke-opacity:1"
       d="m 185.2222,153.80169 -0.0995,-11.88809 c -15.01124,-3.22842 -28.72059,-12.46064 -42.64976,-19.24045 l 0.15265,66.22895 c 17.24087,-7.92389 26.66061,-12.56365 42.57397,-15.40746 l 0.0311,-11.90673"
       id="path35084" />
    <path
       style="fill:none;fill-opacity:1;stroke:#000000;stroke-width:2.83843;stroke-dasharray:none;stroke-opacity:1"
       d="m 103.59701,84.56968 c -27.464511,21.24171 -54.932046,40.59456 -88.388771,50.30945 l 0.0026,44.79281 c 38.197831,10.77853 67.219089,28.10442 88.238021,51.13989 18.82072,-23.88421 46.66716,-41.98272 89.35852,-50.56528 l 0.0272,-44.74643 c -34.44569,-8.23845 -62.50362,-31.52634 -89.23753,-50.93044 z"
       id="path294" />
    <path
       style="fill:#000000;fill-opacity:1;stroke:#000000;stroke-width:6.83913;stroke-dasharray:none;stroke-opacity:1"
       d="m 102.1787,98.26078 1.39235,1.40383 1.39893,-1.45954 -1.40259,-1.41415 z"
       id="path38824" />
    <g
       id="path42308"
       transform="matrix(0.47787275,0,0,0.49012477,53.587288,63.027088)">
      <path
         id="path60141"
         style="color:#000000;fill:#000000;fill-opacity:1;-inkscape-stroke:none"
         d="m -64.598593,167.84832 -8.692925,2.61591 -0.02674,-18.81357 0.974412,-0.25259 z m 0,0 -8.692925,2.61591 -0.02674,-18.81357 0.974412,-0.25259 z m 102.620077,-67.15301 -13.443359,7.625 c -17.6745439,10.02457 -33.1342545,18.75471 -48.783203,25.38672 -16.249483,6.88652 -31.995411,13.38345 -48.314453,17.69531 l 4.597656,17.40235 c 17.856994,-4.71823 34.402694,-11.60156 50.740234,-18.52539 12.49003,-5.29326 24.6695705,-11.85039 37.195313,-18.83399 l -0.0332,116.85742 C -4.9440892,236.93635 -28.568229,226.40777 -55.291016,218.93359 l -0.03906,-17.81836 -18,0.0391 0.06836,31.625 6.765625,1.7207 c 32.135488,8.17238 59.4765213,21.34117 91.75586,35.97656 l 12.71289,5.76563 z" />
    </g>
    <g
       id="path43040"
       transform="matrix(0.47787275,0,0,0.49012477,53.587288,63.027088)">
      <path
         id="path58672"
         style="color:#000000;fill:#000000;fill-opacity:1;-inkscape-stroke:none"
         d="m 42.13693,98.216835 18.08563,-10.5473 -0.104756,11.548066 -17.49423,0.314946 z m 0,0 18.08563,-10.5473 -0.104756,11.548066 -17.49423,0.314946 z m 0.0037,0.0859 V 278.54297 l 4.136719,2.65625 c 18.812357,12.07992 35.290019,25.14949 52.25,40.41015 l 6.093741,5.48438 6.02735,-5.55664 c 18.09719,-16.68515 38.39279,-34.6127 58.02929,-46.04297 l 4.45313,-2.5918 0.10742,-28.93359 -18,-0.0664 -0.0703,18.93555 C 137.12985,274.05121 119.96836,288.70343 104.42773,302.875 90.252573,290.48309 75.899182,279.27059 60.140625,268.84766 V 98.302734 Z" />
    </g>
  </g>
</svg>
