        <svg width="100%" height="100%" viewBox="0 0 683 569" fill="none" aria-label="logotipo icon" xmlns="http://www.w3.org/2000/svg">
<path d="M648.572 268.664L648.196 223.733C591.461 211.531 539.646 176.638 487 151.013L487.577 401.327C552.739 371.379 588.341 353.843 648.486 343.094L648.604 298.093" stroke="white" stroke-width="32.9245"/>
<path d="M34.3815 236.508L18.681 241.354L18.6327 206.503L20.3926 206.035L34.3815 236.508ZM34.3815 236.508L18.681 241.354L18.6327 206.503L20.3926 206.035L34.3815 236.508ZM219.727 112.111L195.447 126.236C163.524 144.806 135.602 160.978 107.338 173.264C77.9889 186.02 49.5496 198.056 20.0753 206.043L28.3793 238.28C60.6314 229.54 90.5151 216.789 120.023 203.963C142.582 194.157 164.579 182.011 187.203 169.074L187.143 385.545C142.126 364.49 99.4572 344.986 51.1923 331.141L51.1217 298.133L18.6113 298.206L18.7348 356.789L30.9544 359.977C88.9954 375.115 138.377 399.51 196.678 426.621L219.639 437.301L219.727 112.111Z" fill="white"/>
<path d="M227.16 107.52L259.825 87.9817L259.636 109.374L228.039 109.957L227.16 107.52ZM227.16 107.52L259.825 87.9817L259.636 109.374L228.039 109.957L227.16 107.52ZM227.167 107.679V441.563L234.638 446.484C268.616 468.861 298.377 493.072 329.009 521.341L340.015 531.501L350.901 521.207C383.587 490.299 420.244 457.089 455.71 435.916L463.753 431.114L463.947 377.517L431.436 377.394L431.309 412.471C398.73 433.243 367.734 460.385 339.666 486.637C314.063 463.682 288.139 442.911 259.677 423.603V107.679H227.167Z" fill="white"/>
</svg>
